<svg width="120" height="120" viewBox="0 0 120 120" fill="none" xmlns="http://www.w3.org/2000/svg">
<path d="M30 31C43.9667 31.8775 47.3566 30.5701 60 26C72.6386 30.1088 76.9112 30.7874 90 31" stroke="white" stroke-width="4" stroke-linecap="round"/>
<path d="M50.8499 67V42.7H63.3959C65.7839 42.7 67.3199 43.258 68.0039 44.374C68.6999 45.49 69.0479 46.78 69.0479 48.244C69.0479 49.756 68.7239 51.058 68.0759 52.15C67.4279 53.23 66.4919 53.8 65.2679 53.86C66.5519 53.932 67.5779 54.532 68.3459 55.66C69.1259 56.788 69.5159 58.246 69.5159 60.034C69.5159 62.062 69.1619 63.73 68.4539 65.038C67.7579 66.346 66.2519 67 63.9359 67H50.8499ZM54.5219 64.444H62.9999C64.0559 64.444 64.7879 64.042 65.1959 63.238C65.6159 62.422 65.8259 61.234 65.8259 59.674C65.8259 58.222 65.5679 57.094 65.0519 56.29C64.5479 55.474 63.6239 55.066 62.2799 55.066H54.5219V64.444ZM54.5219 52.78H62.0639C63.2879 52.78 64.1399 52.408 64.6199 51.664C65.0999 50.908 65.3399 49.936 65.3399 48.748C65.3399 47.644 65.1419 46.786 64.7459 46.174C64.3499 45.55 63.5939 45.238 62.4779 45.238H54.5219V52.78Z" fill="#2ECC71"/>
<path d="M30 65.5C30 77.5 47.5 74.5 60 95C69.5 74.5 89 79.5 89 67" stroke="white" stroke-width="4" stroke-linecap="round"/>
</svg>
