<svg width="120" height="120" viewBox="0 0 120 120" fill="none" xmlns="http://www.w3.org/2000/svg">
<path d="M76.2832 55.75H43.7168L60 76.1973L76.2832 55.75Z" stroke="#2ECC71"/>
<path d="M51.3975 53.75H43.6025L47.5 46.999L51.3975 53.75Z" stroke="#2ECC71"/>
<path d="M57.3975 46.25H49.6025L53.5 53.001L57.3975 46.25Z" stroke="#2ECC71"/>
<path d="M64.291 53.75H55.709L60 46.9375L64.291 53.75Z" stroke="#2ECC71"/>
<path d="M70.3975 46.25H62.6025L66.5 53.001L70.3975 46.25Z" stroke="#2ECC71"/>
<path d="M76.3975 53.75H68.6025L72.5 46.999L76.3975 53.75Z" stroke="#2ECC71"/>
<path d="M89.8365 26V19.925H91.3035L94.1115 25.289H94.125L94.1295 19.925H95.0475V26H93.5895L90.768 20.591H90.75V26H89.8365ZM96.0238 26V19.925H100.051V20.564H96.9463V22.589H99.8623V23.1965H96.9463V25.361H100.051V26H96.0238Z" fill="#2ECC71"/>
<path d="M92.974 96.036C92.071 96.036 91.4485 95.8575 91.1065 95.5005C90.7675 95.1405 90.598 94.5555 90.598 93.7455H91.5205C91.5205 94.4355 91.6435 94.884 91.8895 95.091C92.1355 95.298 92.494 95.4015 92.965 95.4015C93.436 95.4015 93.796 95.316 94.045 95.145C94.294 94.971 94.4185 94.7355 94.4185 94.4385C94.4185 94.0755 94.2655 93.822 93.9595 93.678C93.6565 93.531 93.2275 93.3915 92.6725 93.2595C91.9315 93.0765 91.4005 92.8725 91.0795 92.6475C90.7615 92.4225 90.6025 92.0565 90.6025 91.5495C90.6025 91.0875 90.778 90.693 91.129 90.366C91.48 90.039 92.0905 89.8755 92.9605 89.8755C93.8485 89.8755 94.4635 90.06 94.8055 90.429C95.1505 90.795 95.323 91.3605 95.323 92.1255H94.4005C94.4005 91.4565 94.2745 91.02 94.0225 90.816C93.7705 90.612 93.4135 90.51 92.9515 90.51C92.4835 90.51 92.1235 90.5985 91.8715 90.7755C91.6195 90.9495 91.4935 91.1745 91.4935 91.4505C91.4935 91.8015 91.6465 92.052 91.9525 92.202C92.2615 92.352 92.689 92.4945 93.235 92.6295C93.997 92.8155 94.5355 93.0135 94.8505 93.2235C95.1685 93.4335 95.3275 93.7965 95.3275 94.3125C95.3275 94.7955 95.155 95.2035 94.81 95.5365C94.468 95.8695 93.856 96.036 92.974 96.036ZM96.1678 96V89.925H100.195V90.564H97.0903V92.589H100.006V93.1965H97.0903V95.361H100.195V96H96.1678Z" fill="white"/>
<path d="M22.2161 96.045C21.3221 96.045 20.6651 95.799 20.2451 95.307C19.8281 94.812 19.6196 94.0305 19.6196 92.9625C19.6196 91.8915 19.8281 91.11 20.2451 90.618C20.6621 90.123 21.3191 89.8755 22.2161 89.8755C23.1101 89.8755 23.7671 90.123 24.1871 90.618C24.6071 91.113 24.8171 91.8945 24.8171 92.9625C24.8171 94.0305 24.6071 94.812 24.1871 95.307C23.7671 95.799 23.1101 96.045 22.2161 96.045ZM22.2161 95.406C22.7141 95.406 23.1191 95.2455 23.4311 94.9245C23.7431 94.6035 23.8991 93.9495 23.8991 92.9625C23.8991 91.9695 23.7431 91.314 23.4311 90.996C23.1191 90.675 22.7141 90.5145 22.2161 90.5145C21.7211 90.5145 21.3176 90.675 21.0056 90.996C20.6936 91.314 20.5376 91.9695 20.5376 92.9625C20.5376 93.9495 20.6936 94.6035 21.0056 94.9245C21.3176 95.2455 21.7211 95.406 22.2161 95.406ZM27.866 96.036C26.963 96.036 26.3405 95.8575 25.9985 95.5005C25.6595 95.1405 25.49 94.5555 25.49 93.7455H26.4125C26.4125 94.4355 26.5355 94.884 26.7815 95.091C27.0275 95.298 27.386 95.4015 27.857 95.4015C28.328 95.4015 28.688 95.316 28.937 95.145C29.186 94.971 29.3105 94.7355 29.3105 94.4385C29.3105 94.0755 29.1575 93.822 28.8515 93.678C28.5485 93.531 28.1195 93.3915 27.5645 93.2595C26.8235 93.0765 26.2925 92.8725 25.9715 92.6475C25.6535 92.4225 25.4945 92.0565 25.4945 91.5495C25.4945 91.0875 25.67 90.693 26.021 90.366C26.372 90.039 26.9825 89.8755 27.8525 89.8755C28.7405 89.8755 29.3555 90.06 29.6975 90.429C30.0425 90.795 30.215 91.3605 30.215 92.1255H29.2925C29.2925 91.4565 29.1665 91.02 28.9145 90.816C28.6625 90.612 28.3055 90.51 27.8435 90.51C27.3755 90.51 27.0155 90.5985 26.7635 90.7755C26.5115 90.9495 26.3855 91.1745 26.3855 91.4505C26.3855 91.8015 26.5385 92.052 26.8445 92.202C27.1535 92.352 27.581 92.4945 28.127 92.6295C28.889 92.8155 29.4275 93.0135 29.7425 93.2235C30.0605 93.4335 30.2195 93.7965 30.2195 94.3125C30.2195 94.7955 30.047 95.2035 29.702 95.5365C29.36 95.8695 28.748 96.036 27.866 96.036Z" fill="white"/>
<path d="M19.8311 26V19.925H21.2981L24.1061 25.289H24.1196L24.1241 19.925H25.0421V26H23.5841L20.7626 20.591H20.7446V26H19.8311ZM28.5564 26.045C27.6624 26.045 27.0054 25.799 26.5854 25.307C26.1684 24.812 25.9599 24.0305 25.9599 22.9625C25.9599 21.8915 26.1684 21.11 26.5854 20.618C27.0024 20.123 27.6594 19.8755 28.5564 19.8755C29.4504 19.8755 30.1074 20.123 30.5274 20.618C30.9474 21.113 31.1574 21.8945 31.1574 22.9625C31.1574 24.0305 30.9474 24.812 30.5274 25.307C30.1074 25.799 29.4504 26.045 28.5564 26.045ZM28.5564 25.406C29.0544 25.406 29.4594 25.2455 29.7714 24.9245C30.0834 24.6035 30.2394 23.9495 30.2394 22.9625C30.2394 21.9695 30.0834 21.314 29.7714 20.996C29.4594 20.675 29.0544 20.5145 28.5564 20.5145C28.0614 20.5145 27.6579 20.675 27.3459 20.996C27.0339 21.314 26.8779 21.9695 26.8779 22.9625C26.8779 23.9495 27.0339 24.6035 27.3459 24.9245C27.6579 25.2455 28.0614 25.406 28.5564 25.406Z" fill="white"/>
<path d="M56.8731 19V10.9H58.8291L62.5731 18.052H62.5911L62.5971 10.9H63.8211V19H61.8771L58.1151 11.788H58.0911V19H56.8731Z" fill="white"/>
<path d="M59.8898 107.048C58.6858 107.048 57.8558 106.81 57.3998 106.334C56.9478 105.854 56.7218 105.074 56.7218 103.994H57.9518C57.9518 104.914 58.1158 105.512 58.4438 105.788C58.7718 106.064 59.2498 106.202 59.8778 106.202C60.5058 106.202 60.9858 106.088 61.3178 105.86C61.6498 105.628 61.8158 105.314 61.8158 104.918C61.8158 104.434 61.6118 104.096 61.2038 103.904C60.7998 103.708 60.2278 103.522 59.4878 103.346C58.4998 103.102 57.7918 102.83 57.3638 102.53C56.9398 102.23 56.7278 101.742 56.7278 101.066C56.7278 100.45 56.9618 99.924 57.4298 99.488C57.8978 99.052 58.7118 98.834 59.8717 98.834C61.0558 98.834 61.8758 99.08 62.3318 99.572C62.7918 100.06 63.0218 100.814 63.0218 101.834H61.7918C61.7918 100.942 61.6238 100.36 61.2878 100.088C60.9518 99.816 60.4758 99.68 59.8598 99.68C59.2358 99.68 58.7558 99.798 58.4198 100.034C58.0838 100.266 57.9158 100.566 57.9158 100.934C57.9158 101.402 58.1198 101.736 58.5278 101.936C58.9398 102.136 59.5098 102.326 60.2378 102.506C61.2538 102.754 61.9718 103.018 62.3918 103.298C62.8158 103.578 63.0278 104.062 63.0278 104.75C63.0278 105.394 62.7978 105.938 62.3378 106.382C61.8818 106.826 61.0658 107.048 59.8898 107.048Z" fill="white"/>
<path d="M15.4444 64.06C14.2524 64.06 13.3764 63.732 12.8164 63.076C12.2604 62.416 11.9824 61.374 11.9824 59.95C11.9824 58.522 12.2604 57.48 12.8164 56.824C13.3724 56.164 14.2484 55.834 15.4444 55.834C16.6364 55.834 17.5124 56.164 18.0724 56.824C18.6324 57.484 18.9124 58.526 18.9124 59.95C18.9124 61.374 18.6324 62.416 18.0724 63.076C17.5124 63.732 16.6364 64.06 15.4444 64.06ZM15.4444 63.208C16.1084 63.208 16.6484 62.994 17.0644 62.566C17.4804 62.138 17.6884 61.266 17.6884 59.95C17.6884 58.626 17.4804 57.752 17.0644 57.328C16.6484 56.9 16.1084 56.686 15.4444 56.686C14.7844 56.686 14.2464 56.9 13.8304 57.328C13.4144 57.752 13.2064 58.626 13.2064 59.95C13.2064 61.266 13.4144 62.138 13.8304 62.566C14.2464 62.994 14.7844 63.208 15.4444 63.208Z" fill="white"/>
<path d="M101.734 64V55.9H107.104V56.752H102.964V59.452H106.852V60.262H102.964V63.148H107.104V64H101.734Z" fill="white"/>
<circle cx="60" cy="60" r="34.5" stroke="white"/>
<path d="M86.9863 33.0363L85.4172 38.8923L81.1297 34.6053L86.9863 33.0363Z" stroke="#2ECC71"/>
</svg>
