<svg width="120" height="120" viewBox="0 0 120 120" fill="none" xmlns="http://www.w3.org/2000/svg">
<line x1="2" y1="-2" x2="98.0035" y2="-2" transform="matrix(0.00883386 0.999961 -0.999958 0.00918689 30.5933 10)" stroke="white" stroke-width="4" stroke-linecap="round"/>
<line x1="12" y1="87.0031" x2="106.063" y2="87.0031" stroke="white" stroke-width="4" stroke-linecap="round"/>
<rect x="48.9611" y="29.4805" width="38.961" height="40.2597" rx="10" fill="white"/>
<rect x="40.37" y="22.1881" width="54.8961" height="56.0021" stroke="#2ECC71" stroke-dasharray="2 2"/>
<path d="M96.7583 79.5679C96.8812 79.5633 97.0543 79.5703 97.2797 79.5963C97.7694 79.6526 98.4353 79.7821 99.2139 79.9712C100.767 80.3485 102.718 80.9485 104.508 81.6119C106.31 82.2802 107.899 82.9953 108.761 83.5944C108.973 83.7424 109.123 83.8717 109.218 83.977C109.242 84.0043 109.261 84.0271 109.274 84.046C109.213 84.0802 109.109 84.1267 108.939 84.1717C106.716 84.7608 105.071 85.5381 103.851 86.7578C102.63 87.9793 101.884 89.5948 101.358 91.7593C101.327 91.8853 101.295 91.9721 101.27 92.03C101.255 92.0182 101.239 92.0046 101.221 91.9879C101.115 91.8894 100.987 91.736 100.839 91.5211C100.244 90.6512 99.524 89.0629 98.8479 87.2688C98.1763 85.4867 97.5647 83.5468 97.1775 82.0035C96.9834 81.2299 96.8488 80.5686 96.7894 80.0824C96.7623 79.8603 96.7546 79.6893 96.7583 79.5679Z" fill="#0A0C0D" stroke="white"/>
</svg>
